<svg data-v-423bf9ae="" xmlns="http://www.w3.org/2000/svg" viewBox="0 0 508 95" class="iconLeft"><!----><!----><!----><g data-v-423bf9ae="" id="8838ebbf-f19b-4d56-9b8a-c0a6ee7c5b47" fill="white" transform="matrix(5.940593835033989,0,0,5.940593835033989,107.91350437418987,-1.8155294055740754)"><path d="M7.54 3.82L7.54 10.78L2.57 3.82L1.17 3.82L1.17 13.15L2.61 13.15L2.61 6.21L7.58 13.15L8.97 13.15L8.97 3.82ZM13.91 13.33C15.36 13.33 16.87 12.67 16.87 10.31L16.87 6.53L15.46 6.53L15.46 10.32C15.46 11.43 14.92 12.12 13.91 12.12C12.91 12.12 12.37 11.43 12.37 10.32L12.37 6.53L10.95 6.53L10.95 10.31C10.95 12.67 12.47 13.33 13.91 13.33ZM21.70 6.53L20.29 6.53L20.29 4.64L18.89 4.64L18.89 6.53L18.01 6.53L18.01 7.67L18.89 7.67L18.89 13.15L20.30 13.15L20.29 7.67L21.70 7.67ZM25.86 6.36C25.07 6.36 24.54 6.74 24.16 7.41L23.99 6.53L22.76 6.53L22.76 13.15L24.18 13.15L24.18 9.70C24.18 8.62 24.75 7.66 25.78 7.66C26.02 7.66 26.24 7.70 26.43 7.79L26.85 6.58C26.67 6.47 26.29 6.36 25.86 6.36ZM28.58 5.26C29.09 5.26 29.50 4.86 29.50 4.36C29.50 3.86 29.09 3.46 28.58 3.46C28.09 3.46 27.68 3.86 27.68 4.36C27.68 4.86 28.09 5.26 28.58 5.26ZM27.91 13.15L29.30 13.15L29.30 6.53L27.91 6.53ZM37.33 3.82L37.33 7.73L33.00 7.73L33.00 3.82L31.51 3.82L31.51 13.15L33.00 13.15L33.00 8.94L37.33 8.94L37.33 13.15L38.82 13.15L38.82 3.82ZM46.08 6.53L45.89 7.45C45.38 6.78 44.61 6.36 43.59 6.36C41.87 6.36 40.50 7.69 40.50 9.84C40.50 12.00 41.87 13.31 43.59 13.31C44.60 13.31 45.37 12.89 45.88 12.22L46.08 13.15L47.25 13.15L47.25 6.53ZM43.92 12.12C42.73 12.12 41.94 11.14 41.94 9.84C41.94 8.55 42.73 7.55 43.92 7.55C45.16 7.55 45.97 8.55 45.97 9.84C45.97 11.14 45.16 12.12 43.92 12.12ZM52.12 13.34C53.04 13.34 53.78 13.07 54.40 12.60L53.58 11.58C53.21 11.93 52.70 12.13 52.15 12.13C50.85 12.13 50.08 11.14 50.08 9.84C50.08 8.55 50.85 7.57 52.15 7.57C52.70 7.57 53.21 7.77 53.58 8.12L54.40 7.10C53.78 6.64 53.04 6.36 52.12 6.36C50.06 6.36 48.64 7.89 48.64 9.84C48.64 11.81 50.06 13.34 52.12 13.34ZM61.76 13.15L58.20 9.54L61.35 6.53L59.50 6.53L56.92 9.04L56.92 3.24L55.50 3.24L55.50 13.15L56.92 13.15L56.92 10.06L59.88 13.15ZM61.89 12.22C62.37 12.88 63.38 13.34 64.62 13.34C66.25 13.34 67.26 12.54 67.26 11.35C67.26 9.00 63.76 9.79 63.76 8.36C63.76 7.86 64.14 7.53 64.91 7.51C65.39 7.50 65.95 7.73 66.34 8.11L67.11 7.22C66.67 6.75 65.83 6.36 64.85 6.36C63.28 6.36 62.31 7.19 62.31 8.41C62.31 10.82 65.76 10.09 65.76 11.38C65.76 11.87 65.35 12.21 64.53 12.21C63.88 12.21 63.28 11.97 62.80 11.35Z"></path></g><!----><g data-v-423bf9ae="" id="a2024389-be08-41e5-9d93-6da47a01e17a" transform="matrix(1.0266665988498265,0,0,1.0266665988498265,-3.533326808081945,-3.533326808081945)" stroke="none" fill="white"><g data-name="Group"><path data-name="Compound Path" d="M96.2 50c0-5.1-7.7-9-18.6-11.4 6-9.4 8.7-17.6 5.1-21.2s-8.8-2-17.1 2.6l-4.1 2.4C59 11.5 55.1 3.8 50 3.8s-9 7.7-11.4 18.6L34.5 20c-8.3-4.6-14.3-5.5-17.1-2.6s-.9 11.8 5.1 21.2C11.5 41 3.8 44.9 3.8 50s7.7 9 18.6 11.4c-6 9.4-8.7 17.6-5.1 21.2a6.2 6.2 0 0 0 4.6 1.6c3.2 0 7.4-1.4 12.5-4.2l4.1-2.4C41 88.5 44.9 96.2 50 96.2s9-7.7 11.4-18.6l4.1 2.4c5.1 2.8 9.4 4.2 12.5 4.2a6.2 6.2 0 0 0 4.6-1.6c3.6-3.6.9-11.8-5.1-21.2 11-2.4 18.7-6.3 18.7-11.4zM66.5 21.7c4.8-2.6 8.8-4 11.6-4a4.3 4.3 0 0 1 3.2 1c2.5 2.5.5 9.9-5.7 19.4a119.2 119.2 0 0 0-12-1.7 119.2 119.2 0 0 0-1.7-12zM62.2 50q0 2.6-.1 5l-3.5 3.6-3.6 3.5H45l-3.6-3.5-3.5-3.6q-.1-2.4-.1-5t.1-5l3.5-3.6 3.6-3.5h10l3.6 3.5 3.5 3.6q.1 2.4.1 5zM60 40l-2-2 3.7.2c.1 1.2.2 2.4.2 3.7zm-4.2-4l-4.3-3.8c2.9-2.4 5.8-4.6 8.6-6.5.6 3.2 1.1 6.8 1.5 10.6zm-3.1-.1h-5.5l2.8-2.5zm-8.6.1l-5.7.3c.4-3.9.9-7.4 1.5-10.6 2.8 1.9 5.7 4.1 8.6 6.5zM42 38l-2 2-2 2c.1-1.3.1-2.5.2-3.7zm-6 6.1l-3.8 4.3c-2.5-3-4.7-5.9-6.5-8.6 3.2-.6 6.8-1.1 10.7-1.5-.3 2-.4 3.9-.5 5.9zm-.1 3v5.6L33.4 50zm.1 8.6c.1 1.9.2 3.9.3 5.7-3.9-.4-7.4-.9-10.7-1.5 1.9-2.7 4-5.6 6.5-8.6zm2 2.3l2 2 2 2-3.7-.2c-.1-1.3-.2-2.5-.3-3.8zm6.1 6l4.3 3.8c-2.9 2.4-5.8 4.6-8.6 6.5-.6-3.2-1.1-6.8-1.5-10.6zm3.1.1h5.5L50 66.6zm8.6-.1l5.7-.3c-.4 3.9-.9 7.4-1.5 10.6-2.8-1.9-5.7-4.1-8.6-6.5zm2.2-2l2-2 2-2c-.1 1.3-.1 2.5-.2 3.7zm6-6.1l3.8-4.3c2.5 3 4.7 5.9 6.5 8.6-3.2.6-6.8 1.1-10.7 1.5.3-2 .4-3.9.5-5.9zm.1-3v-2.8-2.8l2.5 2.7zm-.1-8.6c-.1-1.9-.2-3.9-.3-5.7 3.9.4 7.4.9 10.7 1.5-1.9 2.7-4 5.6-6.5 8.6zM50 5.8c3.6 0 7.3 6.6 9.7 17.7a115.6 115.6 0 0 0-9.7 7.3 115.6 115.6 0 0 0-9.7-7.3C42.7 12.4 46.4 5.8 50 5.8zM18.7 18.7a4.3 4.3 0 0 1 3.2-1c2.8 0 6.8 1.4 11.6 4l4.6 2.8a119.2 119.2 0 0 0-1.7 12 119.2 119.2 0 0 0-12 1.7c-6.2-9.6-8.2-16.9-5.7-19.5zM5.8 50c0-3.6 6.6-7.3 17.8-9.7a119.2 119.2 0 0 0 7.2 9.7 119.2 119.2 0 0 0-7.3 9.7C12.4 57.3 5.8 53.6 5.8 50zm27.7 28.3c-7.2 3.9-12.7 5-14.8 2.9s-.5-9.9 5.7-19.4a119.2 119.2 0 0 0 12 1.7 119.3 119.3 0 0 0 1.7 12zM50 94.2c-3.6 0-7.3-6.6-9.7-17.7a115.6 115.6 0 0 0 9.7-7.3 115.6 115.6 0 0 0 9.7 7.3c-2.4 11.1-6.1 17.7-9.7 17.7zm31.3-12.9c-2.1 2.1-7.6 1-14.8-2.9l-4.6-2.8a119.3 119.3 0 0 0 1.7-12 119.2 119.2 0 0 0 12-1.7c6.2 9.5 8.2 16.8 5.7 19.4zm-4.9-21.6a119.2 119.2 0 0 0-7.2-9.7 119.2 119.2 0 0 0 7.3-9.7c11.1 2.4 17.8 6.1 17.8 9.7s-6.7 7.3-17.9 9.7z"></path></g></g><!----></svg>