<svg data-v-423bf9ae="" xmlns="http://www.w3.org/2000/svg" viewBox="0 0 60 60" class="icon"><!----><!----><!----><!----><g data-v-423bf9ae="" id="f8f97cc2-e9a2-4cc0-8b0d-e0c900777cdd" transform="matrix(0.6493506922437456,0,0,0.6493506922437456,-2.467531884307043,-2.467531884307043)" stroke="none" fill="black"><g data-name="Group"><path data-name="Compound Path" d="M96.2 50c0-5.1-7.7-9-18.6-11.4 6-9.4 8.7-17.6 5.1-21.2s-8.8-2-17.1 2.6l-4.1 2.4C59 11.5 55.1 3.8 50 3.8s-9 7.7-11.4 18.6L34.5 20c-8.3-4.6-14.3-5.5-17.1-2.6s-.9 11.8 5.1 21.2C11.5 41 3.8 44.9 3.8 50s7.7 9 18.6 11.4c-6 9.4-8.7 17.6-5.1 21.2a6.2 6.2 0 0 0 4.6 1.6c3.2 0 7.4-1.4 12.5-4.2l4.1-2.4C41 88.5 44.9 96.2 50 96.2s9-7.7 11.4-18.6l4.1 2.4c5.1 2.8 9.4 4.2 12.5 4.2a6.2 6.2 0 0 0 4.6-1.6c3.6-3.6.9-11.8-5.1-21.2 11-2.4 18.7-6.3 18.7-11.4zM66.5 21.7c4.8-2.6 8.8-4 11.6-4a4.3 4.3 0 0 1 3.2 1c2.5 2.5.5 9.9-5.7 19.4a119.2 119.2 0 0 0-12-1.7 119.2 119.2 0 0 0-1.7-12zM62.2 50q0 2.6-.1 5l-3.5 3.6-3.6 3.5H45l-3.6-3.5-3.5-3.6q-.1-2.4-.1-5t.1-5l3.5-3.6 3.6-3.5h10l3.6 3.5 3.5 3.6q.1 2.4.1 5zM60 40l-2-2 3.7.2c.1 1.2.2 2.4.2 3.7zm-4.2-4l-4.3-3.8c2.9-2.4 5.8-4.6 8.6-6.5.6 3.2 1.1 6.8 1.5 10.6zm-3.1-.1h-5.5l2.8-2.5zm-8.6.1l-5.7.3c.4-3.9.9-7.4 1.5-10.6 2.8 1.9 5.7 4.1 8.6 6.5zM42 38l-2 2-2 2c.1-1.3.1-2.5.2-3.7zm-6 6.1l-3.8 4.3c-2.5-3-4.7-5.9-6.5-8.6 3.2-.6 6.8-1.1 10.7-1.5-.3 2-.4 3.9-.5 5.9zm-.1 3v5.6L33.4 50zm.1 8.6c.1 1.9.2 3.9.3 5.7-3.9-.4-7.4-.9-10.7-1.5 1.9-2.7 4-5.6 6.5-8.6zm2 2.3l2 2 2 2-3.7-.2c-.1-1.3-.2-2.5-.3-3.8zm6.1 6l4.3 3.8c-2.9 2.4-5.8 4.6-8.6 6.5-.6-3.2-1.1-6.8-1.5-10.6zm3.1.1h5.5L50 66.6zm8.6-.1l5.7-.3c-.4 3.9-.9 7.4-1.5 10.6-2.8-1.9-5.7-4.1-8.6-6.5zm2.2-2l2-2 2-2c-.1 1.3-.1 2.5-.2 3.7zm6-6.1l3.8-4.3c2.5 3 4.7 5.9 6.5 8.6-3.2.6-6.8 1.1-10.7 1.5.3-2 .4-3.9.5-5.9zm.1-3v-2.8-2.8l2.5 2.7zm-.1-8.6c-.1-1.9-.2-3.9-.3-5.7 3.9.4 7.4.9 10.7 1.5-1.9 2.7-4 5.6-6.5 8.6zM50 5.8c3.6 0 7.3 6.6 9.7 17.7a115.6 115.6 0 0 0-9.7 7.3 115.6 115.6 0 0 0-9.7-7.3C42.7 12.4 46.4 5.8 50 5.8zM18.7 18.7a4.3 4.3 0 0 1 3.2-1c2.8 0 6.8 1.4 11.6 4l4.6 2.8a119.2 119.2 0 0 0-1.7 12 119.2 119.2 0 0 0-12 1.7c-6.2-9.6-8.2-16.9-5.7-19.5zM5.8 50c0-3.6 6.6-7.3 17.8-9.7a119.2 119.2 0 0 0 7.2 9.7 119.2 119.2 0 0 0-7.3 9.7C12.4 57.3 5.8 53.6 5.8 50zm27.7 28.3c-7.2 3.9-12.7 5-14.8 2.9s-.5-9.9 5.7-19.4a119.2 119.2 0 0 0 12 1.7 119.3 119.3 0 0 0 1.7 12zM50 94.2c-3.6 0-7.3-6.6-9.7-17.7a115.6 115.6 0 0 0 9.7-7.3 115.6 115.6 0 0 0 9.7 7.3c-2.4 11.1-6.1 17.7-9.7 17.7zm31.3-12.9c-2.1 2.1-7.6 1-14.8-2.9l-4.6-2.8a119.3 119.3 0 0 0 1.7-12 119.2 119.2 0 0 0 12-1.7c6.2 9.5 8.2 16.8 5.7 19.4zm-4.9-21.6a119.2 119.2 0 0 0-7.2-9.7 119.2 119.2 0 0 0 7.3-9.7c11.1 2.4 17.8 6.1 17.8 9.7s-6.7 7.3-17.9 9.7z"></path></g></g><!----></svg>